<svg width="599" height="236" viewBox="0 0 599 236" fill="none" xmlns="http://www.w3.org/2000/svg">
<path d="M572.304 120.976C568.063 156.031 548.795 181.845 514.437 198.468C480.056 215.085 431.412 219.628 368.437 212.009C331.157 207.499 295.109 199.242 260.281 187.249C225.438 175.24 193.36 160.602 164.026 143.317C134.689 126.03 109.136 107.024 87.3871 86.3177C65.6286 65.5988 49.3334 44.1923 38.4994 22.0885C27.6724 -0.0144722 23.5629 -21.8405 26.1731 -43.4159C30.3472 -77.9185 49.1953 -103.47 82.803 -120.077L84.4148 -120.861C119.035 -137.459 167.561 -142.007 230.038 -134.449C267.306 -129.94 303.356 -121.694 338.194 -109.686C373.026 -97.6889 405.115 -83.0419 434.449 -65.7565C463.786 -48.4697 489.327 -29.4758 511.089 -8.75437C532.835 11.9493 549.131 33.3583 559.976 55.4718C570.805 77.564 574.914 99.401 572.304 120.976Z" stroke="#F1ECE8"/>
</svg>
