<svg width="622" height="259" viewBox="0 0 622 259" fill="none" xmlns="http://www.w3.org/2000/svg">
<path d="M601.611 197.339C615.008 230.009 610.779 261.943 588.895 293.213C566.987 324.49 526.738 352.183 468.046 376.25C433.302 390.497 397.806 400.873 361.552 407.392C325.277 413.904 290.134 416.773 256.095 415.992C222.053 415.21 190.476 411.083 161.389 403.616C132.289 396.142 107.622 385.404 87.3823 371.393C67.1493 357.379 52.9156 340.33 44.6701 320.222C31.4843 288.066 35.4746 256.567 56.7127 225.677L57.7369 224.205C79.8631 192.829 120.006 165.188 178.234 141.312C212.967 127.069 248.459 116.684 284.729 110.173C320.988 103.655 356.145 100.789 390.184 101.57C424.226 102.351 455.788 106.474 484.892 113.948C513.975 121.414 538.643 132.155 558.897 146.169C579.128 160.173 593.366 177.231 601.611 197.339Z" stroke="#F1ECE8"/>
</svg>
