<svg width="329" height="563" viewBox="0 0 329 563" fill="none" xmlns="http://www.w3.org/2000/svg">
<path d="M212.969 0.5C248.279 0.5 276.22 16.5282 296.85 48.6406C317.476 80.7772 327.828 128.523 327.828 191.958C327.828 229.51 323.96 266.288 316.237 302.305C308.5 338.338 297.821 371.942 284.184 403.14C270.545 434.34 254.746 461.99 236.802 486.069C218.846 510.159 199.552 528.907 178.909 542.317C158.267 555.721 137.092 562.422 115.359 562.422C80.6052 562.422 52.975 546.779 32.4521 515.409L31.4795 513.903C10.8438 481.527 0.50003 433.898 0.5 370.966C0.5 333.426 4.35719 296.647 12.0938 260.619C19.8205 224.598 30.5074 190.982 44.1445 159.784C57.7828 128.584 73.5715 100.946 91.5293 76.8535C109.471 52.7778 128.768 34.029 149.419 20.6064C170.051 7.20168 191.236 0.500088 212.969 0.5Z" stroke="#F1ECE8"/>
</svg>
