<svg width="576" height="132" viewBox="0 0 576 132" fill="none" xmlns="http://www.w3.org/2000/svg">
<path d="M570.823 213.355C572.229 248.638 557.327 277.195 526.061 299.087C494.772 320.977 447.476 333.223 384.092 335.75C346.57 337.245 309.666 334.846 273.371 328.563C237.058 322.267 203.055 312.935 171.339 300.551C139.62 288.167 111.363 273.481 86.5881 256.51C61.8026 239.528 42.3007 220.996 28.0788 200.904C13.8639 180.812 6.32462 159.921 5.45895 138.206C4.07464 103.479 18.6044 75.2475 49.132 53.4915L50.5979 52.4596C82.1264 30.5507 129.306 18.3181 192.188 15.8113C229.698 14.3161 266.601 16.7053 302.909 23.0006C339.209 29.2865 373.224 38.6259 404.941 51.0096C436.659 63.3942 464.904 78.0695 489.693 95.0535C514.464 112.022 533.967 130.557 548.201 150.657C562.417 170.738 569.957 191.64 570.823 213.355Z" stroke="#F1ECE8"/>
</svg>
