<svg width="599" height="394" viewBox="0 0 599 394" fill="none" xmlns="http://www.w3.org/2000/svg">
<path d="M572.206 278.976C567.965 314.031 548.697 339.845 514.34 356.468C479.958 373.085 431.315 377.628 368.339 370.009C331.059 365.499 295.011 357.242 260.183 345.249C225.34 333.24 193.262 318.602 163.928 301.317C134.591 284.03 109.039 265.024 87.2894 244.318C65.5309 223.599 49.2357 202.192 38.4017 180.089C27.5747 157.986 23.4652 136.16 26.0754 114.584C30.2496 80.0815 49.0976 54.53 82.7054 37.9235L84.3171 37.1387C118.937 20.5409 167.464 15.9925 229.941 23.551C267.209 28.0597 303.258 36.3062 338.096 48.314C372.929 60.3111 405.018 74.9581 434.352 92.2435C463.688 109.53 489.23 128.524 510.991 149.246C532.737 169.949 549.033 191.358 559.878 213.472C570.708 235.564 574.816 257.401 572.206 278.976Z" stroke="#F1ECE8"/>
</svg>
