<svg width="507" height="577" viewBox="0 0 507 577" fill="none" xmlns="http://www.w3.org/2000/svg">
<path d="M434.111 19.0258C465.99 34.2088 484.325 60.694 489.142 98.5567C493.945 136.44 482.761 183.998 455.485 241.269C439.338 275.172 420.032 306.714 397.573 335.91C375.093 365.115 351.002 390.862 325.275 413.164C299.546 435.469 273.393 453.639 246.839 467.662C220.269 481.69 194.788 490.32 170.385 493.552C145.985 496.776 123.987 493.722 104.365 484.377C72.9882 469.433 54.7689 443.429 49.729 406.283L49.4984 404.505C44.7892 366.402 55.9304 318.953 82.9907 262.135C99.1324 228.243 118.429 196.697 140.906 167.496C163.371 138.297 187.474 112.543 213.2 90.2402C238.929 67.9358 265.068 49.7724 291.64 35.7426C318.191 21.7211 343.675 13.0916 368.091 9.85281C392.482 6.62192 414.49 9.68101 434.111 19.0258Z" stroke="#F1ECE8"/>
</svg>
