<svg width="1410" height="729" viewBox="0 0 1410 729" fill="none" xmlns="http://www.w3.org/2000/svg">
<path d="M212.969 13.5C248.279 13.5 276.22 29.5282 296.85 61.6406C317.476 93.7772 327.828 141.523 327.828 204.958C327.828 242.51 323.96 279.288 316.237 315.305C308.5 351.338 297.821 384.942 284.184 416.14C270.545 447.34 254.746 474.99 236.802 499.069C218.846 523.159 199.552 541.907 178.909 555.317C158.267 568.721 137.092 575.422 115.359 575.422C80.6052 575.422 52.975 559.779 32.4521 528.409L31.4795 526.903C10.8438 494.527 0.50003 446.898 0.5 383.966C0.5 346.426 4.35719 309.647 12.0938 273.619C19.8205 237.598 30.5074 203.982 44.1445 172.784C57.7828 141.584 73.5715 113.946 91.5293 89.8535C109.471 65.7778 128.768 47.029 149.419 33.6064C170.051 20.2017 191.236 13.5001 212.969 13.5Z" stroke="currentColor"/>
<path d="M1337.11 19.0258C1368.99 34.2088 1387.32 60.694 1392.14 98.5567C1396.95 136.44 1385.76 183.998 1358.49 241.269C1342.34 275.172 1323.03 306.714 1300.57 335.91C1278.09 365.115 1254 390.862 1228.28 413.164C1202.55 435.469 1176.39 453.639 1149.84 467.662C1123.27 481.69 1097.79 490.32 1073.39 493.552C1048.98 496.776 1026.99 493.722 1007.37 484.377C975.988 469.433 957.769 443.429 952.729 406.283L952.498 404.505C947.789 366.402 958.93 318.953 985.991 262.135C1002.13 228.243 1021.43 196.697 1043.91 167.496C1066.37 138.297 1090.47 112.543 1116.2 90.2402C1141.93 67.9358 1168.07 49.7724 1194.64 35.7426C1221.19 21.7211 1246.67 13.0916 1271.09 9.85281C1295.48 6.62192 1317.49 9.68101 1337.11 19.0258Z" stroke="currentColor"/>
<path d="M927.304 120.976C923.063 156.031 903.795 181.845 869.437 198.468C835.056 215.085 786.412 219.628 723.437 212.009C686.157 207.499 650.109 199.242 615.281 187.249C580.438 175.24 548.36 160.602 519.026 143.317C489.689 126.03 464.136 107.024 442.387 86.3177C420.629 65.5988 404.333 44.1923 393.499 22.0885C382.672 -0.0144722 378.563 -21.8405 381.173 -43.4159C385.347 -77.9185 404.195 -103.47 437.803 -120.077L439.415 -120.861C474.035 -137.459 522.561 -142.007 585.038 -134.449C622.306 -129.94 658.356 -121.694 693.194 -109.686C728.026 -97.6889 760.115 -83.0419 789.449 -65.7565C818.786 -48.4697 844.327 -29.4758 866.089 -8.75437C887.835 11.9493 904.131 33.3583 914.976 55.4718C925.805 77.564 929.914 99.401 927.304 120.976Z" stroke="currentColor"/>
<path d="M712.823 810.355C714.229 845.638 699.327 874.195 668.061 896.087C636.772 917.977 589.476 930.223 526.092 932.75C488.57 934.245 451.666 931.846 415.371 925.563C379.058 919.267 345.055 909.935 313.339 897.551C281.62 885.167 253.363 870.481 228.588 853.51C203.803 836.528 184.301 817.996 170.079 797.904C155.864 777.812 148.325 756.921 147.459 735.206C146.075 700.479 160.604 672.248 191.132 650.492L192.598 649.46C224.126 627.551 271.306 615.318 334.188 612.811C371.698 611.316 408.601 613.705 444.909 620.001C481.209 626.286 515.224 635.626 546.941 648.01C578.659 660.394 606.904 675.07 631.693 692.053C656.464 709.022 675.967 727.557 690.201 747.657C704.417 767.738 711.957 788.64 712.823 810.355Z" stroke="currentColor"/>
<path d="M900.206 530.976C895.965 566.031 876.697 591.845 842.34 608.468C807.958 625.085 759.315 629.628 696.339 622.009C659.059 617.499 623.011 609.242 588.183 597.249C553.34 585.24 521.262 570.602 491.928 553.317C462.591 536.03 437.039 517.024 415.289 496.318C393.531 475.599 377.236 454.192 366.402 432.089C355.575 409.986 351.465 388.16 354.075 366.584C358.25 332.081 377.098 306.53 410.705 289.923L412.317 289.139C446.937 272.541 495.464 267.993 557.941 275.551C595.209 280.06 631.258 288.306 666.096 300.314C700.929 312.311 733.018 326.958 762.352 344.244C791.688 361.53 817.23 380.524 838.991 401.246C860.737 421.949 877.033 443.358 887.878 465.472C898.708 487.564 902.816 509.401 900.206 530.976Z" stroke="currentColor"/>
<path d="M1389.61 667.339C1403.01 700.009 1398.78 731.943 1376.89 763.213C1354.99 794.49 1314.74 822.183 1256.05 846.25C1221.3 860.497 1185.81 870.873 1149.55 877.392C1113.28 883.904 1078.13 886.773 1044.1 885.992C1010.05 885.21 978.476 881.083 949.389 873.616C920.289 866.142 895.622 855.404 875.382 841.393C855.149 827.379 840.916 810.33 832.67 790.222C819.484 758.066 823.475 726.567 844.713 695.677L845.737 694.205C867.863 662.829 908.006 635.188 966.234 611.312C1000.97 597.069 1036.46 586.684 1072.73 580.173C1108.99 573.655 1144.15 570.789 1178.18 571.57C1212.23 572.351 1243.79 576.474 1272.89 583.948C1301.98 591.414 1326.64 602.155 1346.9 616.169C1367.13 630.173 1381.37 647.231 1389.61 667.339Z" stroke="currentColor"/>
</svg>
