<svg xmlns="http://www.w3.org/2000/svg" viewBox="0 0 218 132" fill="none">
  <g clip-path="url(#clip0_290_179)">
    <path d="M214.091 57.7413L62.3495 0.317771C60.77 -0.210367 59.4618 -0.0823123 58.4248 0.717912C57.3717 1.5021 56.8612 2.67038 56.8612 4.25485V8.97613C56.8612 11.6008 58.1535 13.2973 60.7701 14.0815L181.689 59.3102H3.92479C1.30829 59.3102 0 60.6225 0 63.2472V68.7528C0 71.3775 1.30829 72.6898 3.92479 72.6898H181.686L60.7701 117.917C58.1535 118.702 56.8612 120.414 56.8612 123.039V127.76C56.8612 129.329 57.3717 130.513 58.4248 131.297C59.4618 132.081 60.77 132.209 62.3495 131.681L214.091 74.2577C216.685 73.2202 217.992 71.3861 217.999 68.7727C217.999 68.7657 218 68.7599 218 68.7528V63.2467C218 60.638 216.692 58.7975 214.091 57.7413Z" fill="currentColor"/>
  </g>
  <defs>
    <clipPath id="clip0_290_179">
      <rect width="218" height="132" fill="white"/>
    </clipPath>
  </defs>
</svg>