<svg xmlns="http://www.w3.org/2000/svg" viewBox="0 0 205 570" fill="none">
  <path d="M50.0515 518.74V220.903C50.0515 208.715 44.5903 202.621 33.6679 202.621H17.9702C12.5091 202.621 9.77968 200.086 9.77968 195.004C9.77968 189.933 12.509 187.136 17.9702 186.624C39.355 184.089 50.0515 173.675 50.0515 155.394V150.824C50.0515 124.424 53.5697 99.7869 60.6309 76.9339C67.6812 54.0824 77.9206 35.5504 91.349 21.3287C104.767 7.11616 121.264 0 140.837 0C159.033 0 174.284 5.84382 186.57 17.5193C198.858 29.207 204.999 43.169 204.999 59.4146C204.999 69.0677 202.836 76.3038 198.515 81.1243C194.186 85.957 188.385 88.3604 181.109 88.3604C172.001 88.3604 165.517 85.0643 161.656 78.4582C157.784 71.8644 154.712 64.3657 152.44 55.9863C150.159 47.6085 147.321 40.1219 143.909 33.5159C140.494 26.922 134.459 23.6137 125.819 23.6137C116.712 23.6137 109.545 29.327 104.318 40.752C99.0823 52.1785 96.4673 73.6377 96.4673 105.119V172.151C96.4673 178.245 99.1992 181.292 104.658 181.292H163.362C170.189 181.292 173.601 184.851 173.601 191.957C173.601 199.074 170.189 202.621 163.362 202.621H104.658C99.1992 202.621 96.4673 205.668 96.4673 211.761V518.74C96.4673 529.405 97.9394 536.773 100.905 540.831C103.858 544.902 110.119 547.437 119.675 548.449L155.854 552.258C160.856 553.281 163.362 556.066 163.362 560.636C163.362 566.73 159.95 569.777 153.123 569.777H11.1431C4.31863 569.777 0.903687 566.993 0.903687 561.398C0.903687 555.817 3.85884 552.77 9.77987 552.258L26.8437 550.734C36.4 549.722 42.6502 546.806 45.6134 541.975C48.5685 537.154 50.0515 529.405 50.0515 518.74Z" fill="currentColor"/>
</svg>