<svg xmlns="http://www.w3.org/2000/svg" viewBox="0 0 133 44">
  <g id="logotype">
    <path d="M61.2912 37.0532C59.3099 37.0532 57.7411 36.205 56.5855 34.508C55.4294 32.8115 54.8518 30.3189 54.8518 27.031C54.8518 25.0693 55.0674 23.1472 55.4996 21.2643C55.9312 19.382 56.5284 17.6252 57.2904 15.9947C58.0524 14.3641 58.9348 12.9193 59.9385 11.6596C60.9417 10.4006 62.0211 9.41944 63.1772 8.71663C64.3328 8.01438 65.5206 7.66266 66.7398 7.66266C68.7212 7.66266 70.2893 8.50475 71.4455 10.1881C72.6011 11.8721 73.1792 14.3709 73.1792 17.6849C73.1792 19.6473 72.963 21.5694 72.5314 23.4517C72.0991 25.3346 71.5026 27.0907 70.7406 28.7213C69.9785 30.3519 69.0956 31.7973 68.0924 33.0563C67.0887 34.316 66.0093 35.2972 64.8538 35.9993C63.6976 36.7015 62.5104 37.0532 61.2912 37.0532ZM61.2149 36.0192C62.1545 36.0192 63.0754 35.6284 63.9774 34.846C64.8788 34.0643 65.7301 32.9904 66.5303 31.6246C67.3304 30.2593 68.0353 28.6815 68.6449 26.8918C69.2546 25.1022 69.7309 23.2 70.0738 21.1847C70.4167 19.1701 70.5881 17.1281 70.5881 15.0601C70.5881 10.8182 69.3308 8.69674 66.816 8.69674C65.876 8.69674 64.9549 9.08825 64.0536 9.86994C63.1516 10.6523 62.3009 11.7261 61.5007 13.0914C60.7006 14.4573 59.9957 16.0345 59.386 17.8241C58.7764 19.6138 58.3001 21.5166 57.9572 23.5312C57.6143 25.5465 57.4428 27.5878 57.4428 29.6559C57.4428 33.8984 58.7002 36.0192 61.2149 36.0192Z" fill="currentColor"/>
    <path d="M79.8852 37.0532C79.2499 37.0532 78.6403 36.9072 78.0563 36.6158C77.4716 36.3243 76.9894 35.8601 76.6084 35.2238C76.2273 34.5874 76.0368 33.7392 76.0368 32.6785V18.8382C76.0368 18.361 75.9666 18.0298 75.8272 17.844C75.6873 17.6588 75.4397 17.5525 75.0842 17.5258L74.4365 17.4463C74.0043 17.3934 73.7888 17.2213 73.7888 16.9292C73.7888 16.585 74.0299 16.4122 74.5127 16.4122H78.0563C78.4373 16.4122 78.6277 16.6111 78.6277 17.0088V31.8433C78.6277 33.0632 78.8498 33.9312 79.2945 34.4482C79.7387 34.9653 80.355 35.2238 81.1425 35.2238C81.9296 35.2238 82.6286 34.992 83.2381 34.5278C83.8478 34.0643 84.3366 33.441 84.7051 32.6586C85.0731 31.8768 85.2577 31.0218 85.2577 30.0934V18.8382C85.2577 18.361 85.1873 18.0298 85.0481 17.844C84.9082 17.6588 84.6604 17.5525 84.305 17.5258L83.6574 17.4463C83.2251 17.3934 83.0095 17.2213 83.0095 16.9292C83.0095 16.585 83.2507 16.4122 83.7336 16.4122H87.277C87.6581 16.4122 87.8486 16.6111 87.8486 17.0088V32.4399C87.8486 32.9171 87.9183 33.2421 88.0582 33.4142C88.1975 33.587 88.4451 33.6995 88.8011 33.7523L89.6013 33.8716C89.9312 33.8983 90.0966 34.0306 90.0966 34.2693C90.0966 34.5079 89.893 34.667 89.487 34.7465C88.6993 34.8528 88.0707 35.0647 87.6009 35.3829C87.1306 35.701 86.7181 36.0857 86.3627 36.5362C86.1339 36.7748 85.9434 36.8942 85.7911 36.8942C85.5625 36.8942 85.4481 36.7351 85.4481 36.4169V34.5874C85.4481 34.3756 85.378 34.2494 85.2385 34.2096C85.0986 34.1698 84.9528 34.2295 84.8005 34.3886C83.8603 35.3698 83.0287 36.059 82.3046 36.4567C81.5807 36.8544 80.774 37.0532 79.8852 37.0532Z" fill="currentColor"/>
    <path d="M96.2694 37.0532C95.3799 37.0532 94.6499 36.7282 94.0784 36.0788C93.507 35.4294 93.2211 34.3624 93.2211 32.8773V18.003C93.2211 17.6849 93.0688 17.5258 92.7639 17.5258H91.6589C91.2523 17.5258 91.0492 17.3667 91.0492 17.0485C91.0492 16.8366 91.1636 16.6508 91.3922 16.4917C92.2305 15.8821 92.9032 15.2259 93.4116 14.5231C93.9195 13.8209 94.3642 12.8596 94.7452 11.6398C94.9226 11.083 95.1387 10.8046 95.393 10.8046C95.6721 10.8046 95.812 11.0171 95.812 11.4409V15.8554C95.812 16.227 95.9894 16.4122 96.3455 16.4122H98.8222C99.2282 16.4122 99.4319 16.598 99.4319 16.969C99.4319 17.3406 99.2282 17.5258 98.8222 17.5258H96.3455C95.9894 17.5258 95.812 17.7116 95.812 18.0826V32.917C95.812 33.5005 95.9007 33.9579 96.0788 34.2891C96.2562 34.621 96.5867 34.7863 97.0695 34.7863C97.603 34.7863 98.041 34.5079 98.384 33.9511C98.727 33.3943 98.949 32.4933 99.0508 31.2467C99.1014 30.8757 99.2663 30.6899 99.5461 30.6899C99.8509 30.6899 100.003 30.8888 100.003 31.2864C99.9272 33.3284 99.5271 34.7999 98.8031 35.701C98.0791 36.6027 97.2343 37.0532 96.2694 37.0532Z" fill="currentColor"/>
    <path d="M109.034 37.0532C107.052 37.0532 105.483 36.205 104.328 34.508C103.172 32.8115 102.594 30.3189 102.594 27.031C102.594 25.0693 102.81 23.1472 103.242 21.2643C103.674 19.382 104.271 17.6252 105.033 15.9947C105.795 14.3641 106.677 12.9193 107.681 11.6596C108.684 10.4006 109.764 9.41944 110.92 8.71663C112.075 8.01438 113.263 7.66266 114.482 7.66266C116.464 7.66266 118.032 8.50475 119.188 10.1881C120.343 11.8721 120.922 14.3709 120.922 17.6849C120.922 19.6473 120.705 21.5694 120.274 23.4517C119.842 25.3346 119.245 27.0907 118.483 28.7213C117.721 30.3519 116.838 31.7973 115.835 33.0563C114.831 34.316 113.752 35.2972 112.596 35.9993C111.44 36.7015 110.253 37.0532 109.034 37.0532ZM108.957 36.0192C109.897 36.0192 110.818 35.6284 111.72 34.846C112.621 34.0643 113.473 32.9904 114.273 31.6246C115.073 30.2593 115.778 28.6815 116.387 26.8918C116.997 25.1022 117.473 23.2 117.816 21.1847C118.159 19.1701 118.331 17.1281 118.331 15.0601C118.331 10.8182 117.073 8.69674 114.558 8.69674C113.618 8.69674 112.697 9.08825 111.796 9.86994C110.894 10.6523 110.043 11.7261 109.243 13.0914C108.443 14.4573 107.738 16.0345 107.128 17.8241C106.519 19.6138 106.043 21.5166 105.7 23.5312C105.357 25.5465 105.185 27.5878 105.185 29.6559C105.185 33.8984 106.443 36.0192 108.957 36.0192Z" fill="currentColor"/>
    <path d="M124.351 34.0307V18.4803C124.351 17.844 124.046 17.5258 123.436 17.5258H122.56C122.255 17.5258 122.103 17.3934 122.103 17.1281C122.103 16.8634 122.255 16.7174 122.56 16.6906C123.754 16.5583 124.351 16.0145 124.351 15.0601V14.8214C124.351 13.4431 124.547 12.1568 124.941 10.9636C125.335 9.77052 125.906 8.80295 126.656 8.06043C127.405 7.31838 128.326 6.94684 129.418 6.94684C130.434 6.94684 131.285 7.25195 131.971 7.86154C132.657 8.47176 133 9.20073 133 10.0489C133 10.5529 132.879 10.9307 132.638 11.1824C132.396 11.4347 132.073 11.5602 131.666 11.5602C131.158 11.5602 130.796 11.3881 130.581 11.0432C130.364 10.6989 130.193 10.3074 130.066 9.86992C129.939 9.43251 129.78 9.04163 129.59 8.69673C129.399 8.35246 129.062 8.17973 128.58 8.17973C128.072 8.17973 127.672 8.47802 127.38 9.07453C127.088 9.67111 126.942 10.7915 126.942 12.4352V15.935C126.942 16.2531 127.094 16.4122 127.399 16.4122H130.676C131.057 16.4122 131.247 16.5981 131.247 16.969C131.247 17.3407 131.057 17.5258 130.676 17.5258H127.399C127.094 17.5258 126.942 17.6849 126.942 18.003V34.0307C126.942 34.5874 127.024 34.9721 127.189 35.184C127.354 35.3966 127.704 35.5289 128.237 35.5817L130.257 35.7806C130.536 35.8341 130.676 35.9794 130.676 36.218C130.676 36.5362 130.485 36.6953 130.104 36.6953H122.179C121.798 36.6953 121.607 36.5499 121.607 36.2578C121.607 35.9664 121.772 35.8073 122.103 35.7806L123.055 35.701C123.589 35.6482 123.938 35.496 124.103 35.2437C124.268 34.992 124.351 34.5874 124.351 34.0307Z" fill="currentColor"/>
  </g>
  <path d="M47.0814 3.78093C45.3505 1.26054 43.0029 0 40.0366 0C38.2113 0 36.4331 0.526672 34.7032 1.57787C32.9724 2.63004 31.3564 4.09897 29.8546 5.98374C28.855 7.23816 27.9377 8.61809 27.0984 10.1182C26.6995 7.50751 25.9485 5.39345 24.842 3.78093C23.1111 1.26054 20.7635 0 17.7972 0C15.9719 0 14.1937 0.526672 12.4637 1.57787C10.733 2.63004 9.117 4.09897 7.6152 5.98374C6.11249 7.86946 4.79158 10.0324 3.65076 12.4737C2.50994 14.9149 1.61596 17.5447 0.969825 20.3627C0.322667 23.1814 0 26.059 0 28.9959C0 33.9182 0.864653 37.6496 2.59544 40.1894C4.32543 42.73 6.67403 44 9.64022 44C11.4655 44 13.2428 43.4733 14.9737 42.4221C16.7037 41.3709 18.3195 39.902 19.8222 38.0163C20.8226 36.7607 21.7413 35.3783 22.5817 33.8755C22.9814 36.4637 23.7313 38.5699 24.8349 40.1894C26.5648 42.73 28.9135 44 31.8796 44C33.7049 44 35.4822 43.4733 37.2131 42.4221C38.9431 41.3709 40.5589 39.902 42.0616 38.0163C43.5634 36.1315 44.8853 33.9674 46.0261 31.5263C47.1669 29.0851 48.06 26.4561 48.7071 23.6373C49.3532 20.8193 49.6768 17.942 49.6768 15.0041C49.6768 10.0428 48.8114 6.30202 47.0814 3.78093Z" fill="currentColor"/>
</svg>