
<svg xmlns="http://www.w3.org/2000/svg" viewBox="0 0 591.19956 637.4293">
  <path fill="currentColor" class="cls-1" d="M111.21131,400.19858c-11.19464,0-20.05844-4.59131-26.58754-13.77779-6.5321-9.18305-9.79536-22.67549-9.79536-40.47303,0-10.61923,1.21777-21.02348,3.66017-31.21575,2.43854-10.18884,5.81251-19.69843,10.11804-28.5249,4.30553-8.82647,9.29075-16.64714,14.96209-23.46588,5.66791-6.81488,11.76662-12.1262,18.29873-15.93056,6.5291-3.80135,13.24013-5.70524,20.12881-5.70524,11.19507,0,20.05501,4.55827,26.58754,13.67052,6.5291,9.11568,9.79536,22.64159,9.79536,40.58074,0,10.62266-1.2212,21.02691-3.65975,31.21575-2.4424,10.19228-5.81294,19.69843-10.11847,28.5249-4.30553,8.82647-9.29418,16.65058-14.96209,23.46545-5.67134,6.81874-11.76963,12.13007-18.29873,15.93098-6.53253,3.80092-13.24013,5.70481-20.12881,5.70481ZM110.7805,394.60148c5.30833,0,10.51195-2.11586,15.60788-6.35102,5.09292-4.2313,9.90307-10.04424,14.424-17.43753,4.52094-7.39029,8.50379-15.93098,11.94813-25.61865,3.44434-9.68766,6.13562-19.98421,8.07298-30.89307,1.93779-10.905,2.90626-21.95847,2.90626-33.15311,0-22.96127-7.10409-34.44512-21.31268-34.44512-5.31133,0-10.51538,2.1193-15.60788,6.3506-5.09635,4.23516-9.90307,10.04767-14.424,17.43796-4.52094,7.39372-8.50336,15.93098-11.94813,25.61865-3.44434,9.68766-6.13562,19.98764-8.07298,30.89264-1.93736,10.90886-2.90626,21.9589-2.90626,33.15354,0,22.9647,7.10409,34.44512,21.31268,34.44512Z"/>
  <path fill="currentColor" class="cls-1" d="M216.26861,400.19858c-3.58937,0-7.03371-.79039-10.33345-2.36774-3.3036-1.57778-6.02792-4.09056-8.18068-7.5349-2.1532-3.44477-3.22936-8.03608-3.22936-13.77822v-74.91815c0-2.58315-.39691-4.3759-1.1843-5.3817-.79039-1.00236-2.18967-1.57778-4.19783-1.72238l-3.65975-.43038c-2.44198-.28621-3.65975-1.21777-3.65975-2.79898,0-1.86356,1.36237-2.79855,4.09013-2.79855h20.02154c2.15277,0,3.22893,1.0766,3.22893,3.22936v80.29985c0,6.60333,1.25467,11.30234,3.76745,14.1009,2.50977,2.79898,5.99144,4.19826,10.44115,4.19826,4.44713,0,8.39652-1.25467,11.84043-3.76745,3.44477-2.50934,6.20642-5.88331,8.28839-10.11847,2.07939-4.23173,3.12209-8.85994,3.12209-13.88549v-60.92495c0-2.58315-.39734-4.3759-1.1843-5.3817-.79039-1.00236-2.1901-1.57778-4.19826-1.72238l-3.65932-.43038c-2.4424-.28621-3.66017-1.21777-3.66017-2.79898,0-1.86356,1.3628-2.79855,4.09099-2.79855h20.02068c2.1532,0,3.22936,1.0766,3.22936,3.22936v83.52921c0,2.58315.39391,4.34243,1.1843,5.27443.78696.935,2.18581,1.54388,4.1974,1.82966l4.52094.64579c1.86399.14503,2.79855.86119,2.79855,2.1532,0,1.29157-1.14997,2.15277-3.44391,2.58315-4.45057.57542-8.00261,1.72238-10.65699,3.44477-2.65695,1.72196-4.98779,3.80435-6.99595,6.24289-1.29243,1.29157-2.3686,1.93779-3.22936,1.93779-1.29157,0-1.93779-.86119-1.93779-2.58358v-9.90307c0-1.14697-.39648-1.82966-1.1843-2.04506-.79039-.21541-1.61425.1077-2.47502.96889-5.31219,5.31133-10.01077,9.04188-14.10176,11.19464-4.09013,2.15277-8.64797,3.22893-13.67009,3.22893Z"/>
  <path fill="currentColor" class="cls-1" d="M308.84056,400.19858c-5.02555,0-9.15001-1.75929-12.37937-5.27443-3.22851-3.51514-4.84362-9.29075-4.84362-17.32983v-80.51568c0-1.72196-.86076-2.58315-2.58315-2.58315h-6.24332c-2.29737,0-3.44477-.86119-3.44477-2.58358,0-1.14697.64622-2.15277,1.93779-3.01396,4.73634-3.29974,8.53726-6.85178,11.40962-10.65613,2.86978-3.80135,5.38256-9.00497,7.5349-15.60788,1.00236-3.01396,2.22357-4.52094,3.66017-4.52094,1.57735,0,2.36774,1.1504,2.36774,3.44434v23.89626c0,2.01159,1.00236,3.01396,3.01396,3.01396h13.99362c2.29394,0,3.44477,1.0058,3.44477,3.01396,0,2.01159-1.15083,3.01396-3.44477,3.01396h-13.99362c-2.01159,0-3.01396,1.0058-3.01396,3.01396v80.29985c0,3.15856.50118,5.63444,1.50698,7.42719,1.00236,1.79662,2.86978,2.69128,5.59796,2.69128,3.01396,0,5.48897-1.50698,7.42676-4.52094s3.19246-7.89147,3.76745-14.63941c.28578-2.00816,1.21777-3.01353,2.79855-3.01353,1.72238,0,2.58315,1.07617,2.58315,3.22893-.42995,11.05347-2.69042,19.01875-6.78141,23.89626-4.09013,4.88095-8.86337,7.31949-14.31544,7.31949Z"/>
  <path fill="currentColor" class="cls-1" d="M380.9593,400.19858c-11.19421,0-20.05844-4.59131-26.58754-13.77779-6.53167-9.18305-9.79536-22.67549-9.79536-40.47303,0-10.61923,1.21777-21.02348,3.66017-31.21575,2.43897-10.18884,5.81251-19.69843,10.11804-28.5249s9.29075-16.64714,14.96252-23.46588c5.66748-6.81488,11.76662-12.1262,18.2983-15.93056,6.5291-3.80135,13.24013-5.70524,20.12881-5.70524,11.19507,0,20.05501,4.55827,26.58754,13.67052,6.5291,9.11568,9.79536,22.64159,9.79536,40.58074,0,10.62266-1.2212,21.02691-3.65932,31.21575-2.4424,10.19228-5.81337,19.69843-10.1189,28.5249-4.30553,8.82647-9.29418,16.65058-14.96166,23.46545-5.67177,6.81874-11.77006,12.13007-18.29916,15.93098-6.53253,3.80092-13.24013,5.70481-20.12881,5.70481ZM380.52849,394.60148c5.30875,0,10.51195-2.11586,15.60788-6.35102,5.09335-4.2313,9.9035-10.04424,14.42443-17.43753,4.52094-7.39029,8.50379-15.93098,11.9477-25.61865,3.44477-9.68766,6.13605-19.98421,8.07298-30.89307,1.93779-10.905,2.90668-21.95847,2.90668-33.15311,0-22.96127-7.10409-34.44512-21.31311-34.44512-5.31133,0-10.51538,2.1193-15.60788,6.3506-5.09592,4.23516-9.90264,10.04767-14.42358,17.43796-4.52094,7.39372-8.50379,15.93098-11.94856,25.61865-3.44391,9.68766-6.13519,19.98764-8.07298,30.89264-1.93693,10.90886-2.90583,21.9589-2.90583,33.15354,0,22.9647,7.10409,34.44512,21.31226,34.44512Z"/>
  <path fill="currentColor" class="cls-1" d="M467.50247,383.83722v-84.175c0-3.44434-1.72238-5.16672-5.16715-5.16672h-4.95089c-1.72238,0-2.58315-.71659-2.58315-2.15277,0-1.43317.86076-2.22357,2.58315-2.36817,6.7445-.71659,10.11804-3.65975,10.11804-8.82647v-1.29157c0-7.46109,1.10964-14.424,3.33664-20.88273,2.22357-6.4583,5.45293-11.69582,9.68809-15.71515,4.23173-4.01675,9.43493-6.02792,15.60788-6.02792,5.73871,0,10.54885,1.65158,14.42358,4.95132,3.87558,3.30317,5.81251,7.24912,5.81251,11.84043,0,2.72818-.68226,4.77325-2.04506,6.13562-1.36538,1.36581-3.19504,2.04506-5.48983,2.04506-2.87236,0-4.91742-.93156-6.13519-2.79855-1.2212-1.86356-2.1901-3.98285-2.90668-6.35102-.71916-2.36774-1.61425-4.48361-2.69042-6.3506-1.07703-1.86356-2.98049-2.79855-5.70524-2.79855-2.87236,0-5.13283,1.61468-6.78141,4.84362-1.65115,3.22936-2.47587,9.29418-2.47587,18.19145v18.94451c0,1.72238.86162,2.58358,2.58315,2.58358h18.51456c2.1532,0,3.22936,1.0058,3.22936,3.01396,0,2.01159-1.07617,3.01396-3.22936,3.01396h-18.51456c-1.72153,0-2.58315.86119-2.58315,2.58315v86.75858c0,3.01396.46428,5.09635,1.39971,6.24332.93113,1.1504,2.90583,1.86699,5.91978,2.15277l11.41048,1.0766c1.57735.28921,2.36774,1.07617,2.36774,2.36774,0,1.72238-1.07617,2.58358-3.22936,2.58358h-44.77856c-2.15234,0-3.22936-.78696-3.22936-2.36817,0-1.57735.93199-2.43854,2.79941-2.58315l5.3817-.43081c3.01396-.28578,4.98522-1.11007,5.91978-2.47545.93199-1.36237,1.39971-3.55247,1.39971-6.56643Z"/>
</svg>