<svg xmlns="http://www.w3.org/2000/svg" viewBox="0 0 329 564" fill="none">
  <path d="M115.65 563.633C80.1563 563.633 52.0505 547.387 31.3487 514.883C10.6387 482.39 0.290588 434.649 0.290588 371.676C0.290588 334.102 4.15173 297.288 11.8959 261.225C19.6291 225.173 30.3256 191.525 43.9771 160.295C57.6287 129.064 73.4353 101.392 91.4188 77.2648C109.389 53.1516 128.727 34.3584 149.437 20.8974C170.139 7.44701 191.418 0.710449 213.26 0.710449C248.756 0.710449 276.848 16.8391 297.561 49.0811C318.263 81.3353 328.619 129.194 328.619 192.669C328.619 230.255 324.747 267.069 317.016 303.12C309.272 339.183 298.584 372.819 284.932 404.05C271.281 435.281 255.463 462.965 237.493 487.078C219.51 511.205 200.174 529.998 179.472 543.447C158.76 556.896 137.492 563.633 115.65 563.633ZM114.284 543.828C131.116 543.828 147.614 536.342 163.772 521.356C179.921 506.385 195.173 485.817 209.507 459.657C223.842 433.508 236.47 403.288 247.39 369.01C258.312 334.732 266.846 298.299 272.987 259.7C279.131 221.115 282.203 182.004 282.203 142.394C282.203 61.1498 259.678 20.5163 214.626 20.5163C197.785 20.5163 181.285 28.0151 165.138 42.9868C148.98 57.9721 133.74 78.5386 119.405 104.688C105.07 130.849 92.442 161.057 81.5197 195.335C70.6001 229.613 62.0668 266.057 55.9226 304.643C49.7812 343.242 46.7091 382.34 46.7091 421.951C46.7091 503.207 69.2341 543.828 114.284 543.828Z" fill="currentColor"/>
</svg>