<svg xmlns="http://www.w3.org/2000/svg" viewBox="0 0 161 504" fill="none">
  <path d="M93.9822 503.631C78.0477 503.631 64.9702 497.406 54.7309 484.968C44.4942 472.53 39.3731 452.094 39.3731 423.65V138.76C39.3731 132.667 36.644 129.62 31.1828 129.62H11.3872C4.10295 129.62 0.464905 126.572 0.464905 120.478C0.464905 116.42 2.51373 112.861 6.60891 109.814C21.6264 98.1381 33.678 85.5699 42.7854 72.1089C51.8846 58.6585 59.8519 40.2464 66.6763 16.8833C69.8545 6.2189 73.7266 0.886719 78.2816 0.886719C83.2829 0.886719 85.7892 4.9572 85.7892 13.0739V97.6265C85.7892 104.744 88.9672 108.291 95.3454 108.291H139.715C146.988 108.291 150.637 111.85 150.637 118.955C150.637 126.073 146.988 129.619 139.715 129.619H95.3454C88.9672 129.619 85.7892 133.178 85.7892 140.284V424.41C85.7892 435.586 87.3782 444.347 90.5673 450.69C93.7455 457.047 99.6665 460.213 108.317 460.213C117.873 460.213 125.721 454.88 131.865 444.216C138.009 433.552 141.987 416.294 143.81 392.417C144.716 385.312 147.671 381.754 152.684 381.754C158.145 381.754 160.874 385.562 160.874 393.179C159.511 432.29 152.343 460.474 139.372 477.732C126.404 495.002 111.269 503.631 93.9822 503.631Z" fill="currentColor"/>
</svg>