<svg xmlns="http://www.w3.org/2000/svg" viewBox="0 0 293 396" fill="none">
  <path d="M109.466 395.631C98.0849 395.631 87.164 392.834 76.7015 387.253C66.2268 381.67 57.5887 372.779 50.763 360.592C43.9358 348.404 40.5237 332.158 40.5237 311.84V46.7562C40.5237 37.6162 39.2651 31.2729 36.7685 27.714C34.2625 24.1673 29.8258 22.1313 23.4585 21.6197L11.8545 20.0969C4.11173 19.0842 0.25061 15.788 0.25061 10.1932C0.25061 3.59932 4.57024 0.291016 13.2192 0.291016H76.7015C83.5273 0.291016 86.9394 4.10038 86.9394 11.7175V295.844C86.9394 319.209 90.9176 335.835 98.8849 345.737C106.843 355.641 117.882 360.592 131.991 360.592C146.091 360.592 158.614 356.153 169.533 347.262C180.455 338.383 189.212 326.445 195.813 311.459C202.406 296.486 205.712 280.11 205.712 262.328V46.7563C205.712 37.6162 204.452 31.2729 201.957 27.7141C199.451 24.1674 195.013 22.1314 188.646 21.6198L177.043 20.0969C169.299 19.0842 165.438 15.7881 165.438 10.1932C165.438 3.59937 169.759 0.291097 178.409 0.291097H241.889C248.716 0.291097 252.128 4.10046 252.128 11.7176V307.271C252.128 316.411 253.377 322.635 255.883 325.933C258.379 329.241 262.814 331.396 269.192 332.407L283.526 334.692C289.437 335.205 292.4 337.739 292.4 342.311C292.4 346.881 288.754 349.928 281.48 351.451C267.369 353.487 256.106 357.545 247.69 363.639C239.266 369.732 231.875 377.1 225.508 385.729C221.41 390.299 217.998 392.585 215.269 392.585C211.174 392.585 209.125 389.538 209.125 383.444V348.404C209.125 344.345 207.867 341.93 205.369 341.168C202.863 340.405 200.251 341.549 197.522 344.596C180.679 363.389 165.781 376.589 152.809 384.206C139.841 391.823 125.389 395.631 109.466 395.631Z" fill="currentColor"/>
</svg>